<mxfile host="app.diagrams.net" agent="Mozilla/5.0 (Windows NT 10.0; Win64; x64) AppleWebKit/537.36 (KHTML, like Gecko) Chrome/129.0.0.0 Safari/537.36" version="24.7.16">
  <diagram name="Page-1" id="c4acf3e9-155e-7222-9cf6-157b1a14988f">
    <mxGraphModel dx="1383" dy="755" grid="1" gridSize="10" guides="1" tooltips="1" connect="1" arrows="1" fold="1" page="1" pageScale="1" pageWidth="850" pageHeight="1100" background="none" math="0" shadow="0">
      <root>
        <mxCell id="0" />
        <mxCell id="1" parent="0" />
        <mxCell id="WkCyeL3jxbVvZCuhyvXg-1" value="Partei" style="swimlane;fontStyle=0;childLayout=stackLayout;horizontal=1;startSize=26;fillColor=none;horizontalStack=0;resizeParent=1;resizeParentMax=0;resizeLast=0;collapsible=1;marginBottom=0;whiteSpace=wrap;html=1;" vertex="1" parent="1">
          <mxGeometry x="173.93" y="532" width="160" height="104" as="geometry">
            <mxRectangle x="40" y="460" width="70" height="30" as="alternateBounds" />
          </mxGeometry>
        </mxCell>
        <mxCell id="WkCyeL3jxbVvZCuhyvXg-2" value="+ ParteiId: int" style="text;strokeColor=none;fillColor=none;align=left;verticalAlign=top;spacingLeft=4;spacingRight=4;overflow=hidden;rotatable=0;points=[[0,0.5],[1,0.5]];portConstraint=eastwest;whiteSpace=wrap;html=1;" vertex="1" parent="WkCyeL3jxbVvZCuhyvXg-1">
          <mxGeometry y="26" width="160" height="26" as="geometry" />
        </mxCell>
        <mxCell id="WkCyeL3jxbVvZCuhyvXg-3" value="+ Name: String" style="text;strokeColor=none;fillColor=none;align=left;verticalAlign=top;spacingLeft=4;spacingRight=4;overflow=hidden;rotatable=0;points=[[0,0.5],[1,0.5]];portConstraint=eastwest;whiteSpace=wrap;html=1;" vertex="1" parent="WkCyeL3jxbVvZCuhyvXg-1">
          <mxGeometry y="52" width="160" height="26" as="geometry" />
        </mxCell>
        <mxCell id="WkCyeL3jxbVvZCuhyvXg-4" value="+ Kurzbezeichnung: String" style="text;strokeColor=none;fillColor=none;align=left;verticalAlign=top;spacingLeft=4;spacingRight=4;overflow=hidden;rotatable=0;points=[[0,0.5],[1,0.5]];portConstraint=eastwest;whiteSpace=wrap;html=1;" vertex="1" parent="WkCyeL3jxbVvZCuhyvXg-1">
          <mxGeometry y="78" width="160" height="26" as="geometry" />
        </mxCell>
        <mxCell id="WkCyeL3jxbVvZCuhyvXg-9" value="Wahlkreis" style="swimlane;fontStyle=0;childLayout=stackLayout;horizontal=1;startSize=26;fillColor=none;horizontalStack=0;resizeParent=1;resizeParentMax=0;resizeLast=0;collapsible=1;marginBottom=0;whiteSpace=wrap;html=1;" vertex="1" parent="1">
          <mxGeometry x="406.8" y="382" width="140" height="104" as="geometry" />
        </mxCell>
        <mxCell id="WkCyeL3jxbVvZCuhyvXg-10" value="+ Name: String" style="text;strokeColor=none;fillColor=none;align=left;verticalAlign=top;spacingLeft=4;spacingRight=4;overflow=hidden;rotatable=0;points=[[0,0.5],[1,0.5]];portConstraint=eastwest;whiteSpace=wrap;html=1;" vertex="1" parent="WkCyeL3jxbVvZCuhyvXg-9">
          <mxGeometry y="26" width="140" height="26" as="geometry" />
        </mxCell>
        <mxCell id="WkCyeL3jxbVvZCuhyvXg-11" value="+ WKId: int" style="text;strokeColor=none;fillColor=none;align=left;verticalAlign=top;spacingLeft=4;spacingRight=4;overflow=hidden;rotatable=0;points=[[0,0.5],[1,0.5]];portConstraint=eastwest;whiteSpace=wrap;html=1;" vertex="1" parent="WkCyeL3jxbVvZCuhyvXg-9">
          <mxGeometry y="52" width="140" height="26" as="geometry" />
        </mxCell>
        <mxCell id="WkCyeL3jxbVvZCuhyvXg-12" value="+ Bundesland: String" style="text;strokeColor=none;fillColor=none;align=left;verticalAlign=top;spacingLeft=4;spacingRight=4;overflow=hidden;rotatable=0;points=[[0,0.5],[1,0.5]];portConstraint=eastwest;whiteSpace=wrap;html=1;" vertex="1" parent="WkCyeL3jxbVvZCuhyvXg-9">
          <mxGeometry y="78" width="140" height="26" as="geometry" />
        </mxCell>
        <mxCell id="WkCyeL3jxbVvZCuhyvXg-14" value="ZweitstimmeErgebnis" style="swimlane;fontStyle=0;childLayout=stackLayout;horizontal=1;startSize=26;fillColor=none;horizontalStack=0;resizeParent=1;resizeParentMax=0;resizeLast=0;collapsible=1;marginBottom=0;whiteSpace=wrap;html=1;" vertex="1" parent="1">
          <mxGeometry x="190" y="220" width="140" height="104" as="geometry" />
        </mxCell>
        <mxCell id="WkCyeL3jxbVvZCuhyvXg-15" value="+ ParteiId: int" style="text;strokeColor=none;fillColor=none;align=left;verticalAlign=top;spacingLeft=4;spacingRight=4;overflow=hidden;rotatable=0;points=[[0,0.5],[1,0.5]];portConstraint=eastwest;whiteSpace=wrap;html=1;" vertex="1" parent="WkCyeL3jxbVvZCuhyvXg-14">
          <mxGeometry y="26" width="140" height="26" as="geometry" />
        </mxCell>
        <mxCell id="WkCyeL3jxbVvZCuhyvXg-91" value="+ WahlkreisId: int" style="text;strokeColor=none;fillColor=none;align=left;verticalAlign=top;spacingLeft=4;spacingRight=4;overflow=hidden;rotatable=0;points=[[0,0.5],[1,0.5]];portConstraint=eastwest;whiteSpace=wrap;html=1;" vertex="1" parent="WkCyeL3jxbVvZCuhyvXg-14">
          <mxGeometry y="52" width="140" height="26" as="geometry" />
        </mxCell>
        <mxCell id="WkCyeL3jxbVvZCuhyvXg-16" value="+ WählerId: int" style="text;strokeColor=none;fillColor=none;align=left;verticalAlign=top;spacingLeft=4;spacingRight=4;overflow=hidden;rotatable=0;points=[[0,0.5],[1,0.5]];portConstraint=eastwest;whiteSpace=wrap;html=1;" vertex="1" parent="WkCyeL3jxbVvZCuhyvXg-14">
          <mxGeometry y="78" width="140" height="26" as="geometry" />
        </mxCell>
        <mxCell id="WkCyeL3jxbVvZCuhyvXg-18" value="ErststimmeErgebnis" style="swimlane;fontStyle=0;childLayout=stackLayout;horizontal=1;startSize=26;fillColor=none;horizontalStack=0;resizeParent=1;resizeParentMax=0;resizeLast=0;collapsible=1;marginBottom=0;whiteSpace=wrap;html=1;" vertex="1" parent="1">
          <mxGeometry x="610" y="222.4" width="160" height="78" as="geometry" />
        </mxCell>
        <mxCell id="WkCyeL3jxbVvZCuhyvXg-19" value="+ KandidatId: int" style="text;strokeColor=none;fillColor=none;align=left;verticalAlign=top;spacingLeft=4;spacingRight=4;overflow=hidden;rotatable=0;points=[[0,0.5],[1,0.5]];portConstraint=eastwest;whiteSpace=wrap;html=1;" vertex="1" parent="WkCyeL3jxbVvZCuhyvXg-18">
          <mxGeometry y="26" width="160" height="26" as="geometry" />
        </mxCell>
        <mxCell id="WkCyeL3jxbVvZCuhyvXg-105" value="+ WählerId: int" style="text;strokeColor=none;fillColor=none;align=left;verticalAlign=top;spacingLeft=4;spacingRight=4;overflow=hidden;rotatable=0;points=[[0,0.5],[1,0.5]];portConstraint=eastwest;whiteSpace=wrap;html=1;" vertex="1" parent="WkCyeL3jxbVvZCuhyvXg-18">
          <mxGeometry y="52" width="160" height="26" as="geometry" />
        </mxCell>
        <mxCell id="WkCyeL3jxbVvZCuhyvXg-30" style="edgeStyle=orthogonalEdgeStyle;rounded=0;orthogonalLoop=1;jettySize=auto;html=1;exitX=0.5;exitY=0;exitDx=0;exitDy=0;endArrow=open;endFill=0;entryX=0.5;entryY=1;entryDx=0;entryDy=0;" edge="1" parent="1" source="WkCyeL3jxbVvZCuhyvXg-5" target="WkCyeL3jxbVvZCuhyvXg-9">
          <mxGeometry relative="1" as="geometry">
            <mxPoint x="650" y="352" as="targetPoint" />
          </mxGeometry>
        </mxCell>
        <mxCell id="WkCyeL3jxbVvZCuhyvXg-35" value="*" style="edgeLabel;html=1;align=center;verticalAlign=middle;resizable=0;points=[];" vertex="1" connectable="0" parent="WkCyeL3jxbVvZCuhyvXg-30">
          <mxGeometry x="-0.7958" relative="1" as="geometry">
            <mxPoint x="218" y="-211" as="offset" />
          </mxGeometry>
        </mxCell>
        <mxCell id="WkCyeL3jxbVvZCuhyvXg-99" value="1" style="edgeLabel;html=1;align=center;verticalAlign=middle;resizable=0;points=[];" vertex="1" connectable="0" parent="WkCyeL3jxbVvZCuhyvXg-30">
          <mxGeometry x="0.8122" y="-3" relative="1" as="geometry">
            <mxPoint x="5" y="5" as="offset" />
          </mxGeometry>
        </mxCell>
        <mxCell id="WkCyeL3jxbVvZCuhyvXg-100" value="*" style="edgeLabel;html=1;align=center;verticalAlign=middle;resizable=0;points=[];" vertex="1" connectable="0" parent="WkCyeL3jxbVvZCuhyvXg-30">
          <mxGeometry x="-0.635" y="-1" relative="1" as="geometry">
            <mxPoint x="6" as="offset" />
          </mxGeometry>
        </mxCell>
        <mxCell id="WkCyeL3jxbVvZCuhyvXg-32" style="edgeStyle=orthogonalEdgeStyle;rounded=0;orthogonalLoop=1;jettySize=auto;html=1;exitX=0;exitY=0.5;exitDx=0;exitDy=0;entryX=1;entryY=0.5;entryDx=0;entryDy=0;endArrow=open;endFill=0;" edge="1" parent="1" source="WkCyeL3jxbVvZCuhyvXg-7" target="WkCyeL3jxbVvZCuhyvXg-3">
          <mxGeometry relative="1" as="geometry" />
        </mxCell>
        <mxCell id="WkCyeL3jxbVvZCuhyvXg-33" value="0..1" style="edgeLabel;html=1;align=center;verticalAlign=middle;resizable=0;points=[];" vertex="1" connectable="0" parent="WkCyeL3jxbVvZCuhyvXg-32">
          <mxGeometry x="-0.141" relative="1" as="geometry">
            <mxPoint x="-19" y="-12" as="offset" />
          </mxGeometry>
        </mxCell>
        <mxCell id="WkCyeL3jxbVvZCuhyvXg-34" value="*" style="edgeLabel;html=1;align=center;verticalAlign=middle;resizable=0;points=[];" vertex="1" connectable="0" parent="WkCyeL3jxbVvZCuhyvXg-32">
          <mxGeometry x="-0.3587" y="-1" relative="1" as="geometry">
            <mxPoint x="14" y="-7" as="offset" />
          </mxGeometry>
        </mxCell>
        <mxCell id="WkCyeL3jxbVvZCuhyvXg-36" style="edgeStyle=orthogonalEdgeStyle;rounded=0;orthogonalLoop=1;jettySize=auto;html=1;exitX=0.5;exitY=0;exitDx=0;exitDy=0;entryX=0.504;entryY=1.042;entryDx=0;entryDy=0;entryPerimeter=0;endArrow=none;endFill=0;startArrow=open;startFill=0;" edge="1" parent="1" source="WkCyeL3jxbVvZCuhyvXg-1" target="WkCyeL3jxbVvZCuhyvXg-74">
          <mxGeometry relative="1" as="geometry">
            <Array as="points">
              <mxPoint x="254" y="347" />
            </Array>
          </mxGeometry>
        </mxCell>
        <mxCell id="WkCyeL3jxbVvZCuhyvXg-37" value="1" style="edgeLabel;html=1;align=center;verticalAlign=middle;resizable=0;points=[];" vertex="1" connectable="0" parent="WkCyeL3jxbVvZCuhyvXg-36">
          <mxGeometry x="-0.9252" y="2" relative="1" as="geometry">
            <mxPoint x="-8" y="-2" as="offset" />
          </mxGeometry>
        </mxCell>
        <mxCell id="WkCyeL3jxbVvZCuhyvXg-46" value="*" style="edgeLabel;html=1;align=center;verticalAlign=middle;resizable=0;points=[];" vertex="1" connectable="0" parent="WkCyeL3jxbVvZCuhyvXg-36">
          <mxGeometry x="0.9421" y="-2" relative="1" as="geometry">
            <mxPoint x="2" y="3" as="offset" />
          </mxGeometry>
        </mxCell>
        <mxCell id="WkCyeL3jxbVvZCuhyvXg-39" style="edgeStyle=orthogonalEdgeStyle;rounded=0;orthogonalLoop=1;jettySize=auto;html=1;exitX=0.995;exitY=0.239;exitDx=0;exitDy=0;endArrow=none;endFill=0;entryX=0.5;entryY=1;entryDx=0;entryDy=0;exitPerimeter=0;startArrow=open;startFill=0;" edge="1" parent="1" source="WkCyeL3jxbVvZCuhyvXg-7" target="WkCyeL3jxbVvZCuhyvXg-70">
          <mxGeometry relative="1" as="geometry">
            <mxPoint x="434" y="510" as="sourcePoint" />
            <mxPoint x="440" y="470" as="targetPoint" />
            <Array as="points" />
          </mxGeometry>
        </mxCell>
        <mxCell id="WkCyeL3jxbVvZCuhyvXg-104" value="1" style="edgeLabel;html=1;align=center;verticalAlign=middle;resizable=0;points=[];" vertex="1" connectable="0" parent="WkCyeL3jxbVvZCuhyvXg-39">
          <mxGeometry x="-0.9374" y="1" relative="1" as="geometry">
            <mxPoint x="-1" y="-8" as="offset" />
          </mxGeometry>
        </mxCell>
        <mxCell id="WkCyeL3jxbVvZCuhyvXg-47" value="Ergebnisse" style="swimlane;fontStyle=0;childLayout=stackLayout;horizontal=1;startSize=26;fillColor=none;horizontalStack=0;resizeParent=1;resizeParentMax=0;resizeLast=0;collapsible=1;marginBottom=0;whiteSpace=wrap;html=1;" vertex="1" parent="1">
          <mxGeometry x="350" y="20" width="200" height="48" as="geometry" />
        </mxCell>
        <mxCell id="WkCyeL3jxbVvZCuhyvXg-51" style="edgeStyle=orthogonalEdgeStyle;rounded=0;orthogonalLoop=1;jettySize=auto;html=1;entryX=0.5;entryY=0;entryDx=0;entryDy=0;endArrow=open;endFill=0;exitX=0;exitY=0.5;exitDx=0;exitDy=0;" edge="1" parent="1" source="WkCyeL3jxbVvZCuhyvXg-79" target="WkCyeL3jxbVvZCuhyvXg-14">
          <mxGeometry relative="1" as="geometry">
            <mxPoint x="360" y="100" as="sourcePoint" />
          </mxGeometry>
        </mxCell>
        <mxCell id="WkCyeL3jxbVvZCuhyvXg-54" value="*" style="edgeLabel;html=1;align=center;verticalAlign=middle;resizable=0;points=[];" vertex="1" connectable="0" parent="WkCyeL3jxbVvZCuhyvXg-51">
          <mxGeometry x="0.8472" relative="1" as="geometry">
            <mxPoint x="10" as="offset" />
          </mxGeometry>
        </mxCell>
        <mxCell id="WkCyeL3jxbVvZCuhyvXg-92" value="1" style="edgeLabel;html=1;align=center;verticalAlign=middle;resizable=0;points=[];" vertex="1" connectable="0" parent="WkCyeL3jxbVvZCuhyvXg-51">
          <mxGeometry x="-0.9271" y="-1" relative="1" as="geometry">
            <mxPoint x="-13" y="-7" as="offset" />
          </mxGeometry>
        </mxCell>
        <mxCell id="WkCyeL3jxbVvZCuhyvXg-52" style="edgeStyle=orthogonalEdgeStyle;rounded=0;orthogonalLoop=1;jettySize=auto;html=1;entryX=0.5;entryY=0;entryDx=0;entryDy=0;endArrow=open;endFill=0;exitX=1;exitY=0.352;exitDx=0;exitDy=0;exitPerimeter=0;" edge="1" parent="1" source="WkCyeL3jxbVvZCuhyvXg-75" target="WkCyeL3jxbVvZCuhyvXg-18">
          <mxGeometry relative="1" as="geometry">
            <mxPoint x="540" y="20" as="sourcePoint" />
          </mxGeometry>
        </mxCell>
        <mxCell id="WkCyeL3jxbVvZCuhyvXg-55" value="1" style="edgeLabel;html=1;align=center;verticalAlign=middle;resizable=0;points=[];" vertex="1" connectable="0" parent="WkCyeL3jxbVvZCuhyvXg-52">
          <mxGeometry x="-0.7194" y="1" relative="1" as="geometry">
            <mxPoint x="9" y="-11" as="offset" />
          </mxGeometry>
        </mxCell>
        <mxCell id="WkCyeL3jxbVvZCuhyvXg-56" value="*" style="edgeLabel;html=1;align=center;verticalAlign=middle;resizable=0;points=[];" vertex="1" connectable="0" parent="WkCyeL3jxbVvZCuhyvXg-52">
          <mxGeometry x="0.8337" y="-1" relative="1" as="geometry">
            <mxPoint x="11" as="offset" />
          </mxGeometry>
        </mxCell>
        <mxCell id="WkCyeL3jxbVvZCuhyvXg-5" value="Direktkandidat" style="swimlane;fontStyle=0;childLayout=stackLayout;horizontal=1;startSize=26;fillColor=none;horizontalStack=0;resizeParent=1;resizeParentMax=0;resizeLast=0;collapsible=1;marginBottom=0;whiteSpace=wrap;html=1;" vertex="1" parent="1">
          <mxGeometry x="401.8" y="532" width="150" height="104" as="geometry" />
        </mxCell>
        <mxCell id="WkCyeL3jxbVvZCuhyvXg-6" value="+ Id: int" style="text;strokeColor=none;fillColor=none;align=left;verticalAlign=top;spacingLeft=4;spacingRight=4;overflow=hidden;rotatable=0;points=[[0,0.5],[1,0.5]];portConstraint=eastwest;whiteSpace=wrap;html=1;" vertex="1" parent="WkCyeL3jxbVvZCuhyvXg-5">
          <mxGeometry y="26" width="150" height="26" as="geometry" />
        </mxCell>
        <mxCell id="WkCyeL3jxbVvZCuhyvXg-7" value="+ Name: String" style="text;strokeColor=none;fillColor=none;align=left;verticalAlign=top;spacingLeft=4;spacingRight=4;overflow=hidden;rotatable=0;points=[[0,0.5],[1,0.5]];portConstraint=eastwest;whiteSpace=wrap;html=1;" vertex="1" parent="WkCyeL3jxbVvZCuhyvXg-5">
          <mxGeometry y="52" width="150" height="26" as="geometry" />
        </mxCell>
        <mxCell id="WkCyeL3jxbVvZCuhyvXg-8" value="+ ParteiId: int" style="text;strokeColor=none;fillColor=none;align=left;verticalAlign=top;spacingLeft=4;spacingRight=4;overflow=hidden;rotatable=0;points=[[0,0.5],[1,0.5]];portConstraint=eastwest;whiteSpace=wrap;html=1;" vertex="1" parent="WkCyeL3jxbVvZCuhyvXg-5">
          <mxGeometry y="78" width="150" height="26" as="geometry" />
        </mxCell>
        <mxCell id="WkCyeL3jxbVvZCuhyvXg-63" value="" style="html=1;whiteSpace=wrap;align=left;" vertex="1" parent="1">
          <mxGeometry x="401.8" y="636" width="150" height="26" as="geometry" />
        </mxCell>
        <mxCell id="WkCyeL3jxbVvZCuhyvXg-70" value="" style="html=1;whiteSpace=wrap;align=left;" vertex="1" parent="1">
          <mxGeometry x="610" y="300.4" width="160" height="8" as="geometry" />
        </mxCell>
        <mxCell id="WkCyeL3jxbVvZCuhyvXg-73" value="" style="html=1;whiteSpace=wrap;align=left;" vertex="1" parent="1">
          <mxGeometry x="190" y="324" width="140" height="22" as="geometry" />
        </mxCell>
        <mxCell id="WkCyeL3jxbVvZCuhyvXg-74" value="+ AnzahlParteien(): int" style="text;strokeColor=none;fillColor=none;align=left;verticalAlign=top;spacingLeft=4;spacingRight=4;overflow=hidden;rotatable=0;points=[[0,0.5],[1,0.5]];portConstraint=eastwest;whiteSpace=wrap;html=1;" vertex="1" parent="1">
          <mxGeometry x="190" y="322" width="140" height="24" as="geometry" />
        </mxCell>
        <mxCell id="WkCyeL3jxbVvZCuhyvXg-75" value="" style="html=1;whiteSpace=wrap;align=left;" vertex="1" parent="1">
          <mxGeometry x="350" y="50" width="200" height="80" as="geometry" />
        </mxCell>
        <mxCell id="WkCyeL3jxbVvZCuhyvXg-76" value="+ AnzahlSitze(ParteiId): int" style="text;strokeColor=none;fillColor=none;align=left;verticalAlign=top;spacingLeft=4;spacingRight=4;overflow=hidden;rotatable=0;points=[[0,0.5],[1,0.5]];portConstraint=eastwest;whiteSpace=wrap;html=1;" vertex="1" parent="1">
          <mxGeometry x="350" y="48" width="170" height="20" as="geometry" />
        </mxCell>
        <mxCell id="WkCyeL3jxbVvZCuhyvXg-79" value="+ DirektMandate(ParteiId): int" style="text;strokeColor=none;fillColor=none;align=left;verticalAlign=top;spacingLeft=4;spacingRight=4;overflow=hidden;rotatable=0;points=[[0,0.5],[1,0.5]];portConstraint=eastwest;whiteSpace=wrap;html=1;" vertex="1" parent="1">
          <mxGeometry x="350" y="68" width="190" height="20" as="geometry" />
        </mxCell>
        <mxCell id="WkCyeL3jxbVvZCuhyvXg-80" value="+ ÜberhangMandate(ParteiId): int" style="text;strokeColor=none;fillColor=none;align=left;verticalAlign=top;spacingLeft=4;spacingRight=4;overflow=hidden;rotatable=0;points=[[0,0.5],[1,0.5]];portConstraint=eastwest;whiteSpace=wrap;html=1;" vertex="1" parent="1">
          <mxGeometry x="350" y="88" width="200" height="20" as="geometry" />
        </mxCell>
        <mxCell id="WkCyeL3jxbVvZCuhyvXg-81" value="+ AusgleichsMandate(ParteiId): int" style="text;strokeColor=none;fillColor=none;align=left;verticalAlign=top;spacingLeft=4;spacingRight=4;overflow=hidden;rotatable=0;points=[[0,0.5],[1,0.5]];portConstraint=eastwest;whiteSpace=wrap;html=1;" vertex="1" parent="1">
          <mxGeometry x="350" y="108" width="200" height="20" as="geometry" />
        </mxCell>
        <mxCell id="WkCyeL3jxbVvZCuhyvXg-82" value="+ AnzahlKandidaten():int" style="text;strokeColor=none;fillColor=none;align=left;verticalAlign=top;spacingLeft=4;spacingRight=4;overflow=hidden;rotatable=0;points=[[0,0.5],[1,0.5]];portConstraint=eastwest;whiteSpace=wrap;html=1;" vertex="1" parent="1">
          <mxGeometry x="401.8" y="636" width="150" height="26" as="geometry" />
        </mxCell>
        <mxCell id="WkCyeL3jxbVvZCuhyvXg-101" style="edgeStyle=orthogonalEdgeStyle;rounded=0;orthogonalLoop=1;jettySize=auto;html=1;exitX=0.5;exitY=1;exitDx=0;exitDy=0;entryX=0.5;entryY=0;entryDx=0;entryDy=0;endArrow=open;endFill=0;" edge="1" parent="1" source="WkCyeL3jxbVvZCuhyvXg-83" target="WkCyeL3jxbVvZCuhyvXg-9">
          <mxGeometry relative="1" as="geometry">
            <Array as="points">
              <mxPoint x="477" y="333" />
            </Array>
          </mxGeometry>
        </mxCell>
        <mxCell id="WkCyeL3jxbVvZCuhyvXg-102" value="*" style="edgeLabel;html=1;align=center;verticalAlign=middle;resizable=0;points=[];" vertex="1" connectable="0" parent="WkCyeL3jxbVvZCuhyvXg-101">
          <mxGeometry x="-0.0576" relative="1" as="geometry">
            <mxPoint x="8" y="-12" as="offset" />
          </mxGeometry>
        </mxCell>
        <mxCell id="WkCyeL3jxbVvZCuhyvXg-103" value="1" style="edgeLabel;html=1;align=center;verticalAlign=middle;resizable=0;points=[];" vertex="1" connectable="0" parent="WkCyeL3jxbVvZCuhyvXg-101">
          <mxGeometry x="0.6064" relative="1" as="geometry">
            <mxPoint x="8" as="offset" />
          </mxGeometry>
        </mxCell>
        <mxCell id="WkCyeL3jxbVvZCuhyvXg-83" value="&lt;span style=&quot;font-weight: normal;&quot;&gt;Wahlberechtigt&lt;/span&gt;" style="swimlane;fontStyle=1;align=center;verticalAlign=top;childLayout=stackLayout;horizontal=1;startSize=26;horizontalStack=0;resizeParent=1;resizeParentMax=0;resizeLast=0;collapsible=1;marginBottom=0;whiteSpace=wrap;html=1;" vertex="1" parent="1">
          <mxGeometry x="390" y="222.92" width="160" height="110" as="geometry" />
        </mxCell>
        <mxCell id="WkCyeL3jxbVvZCuhyvXg-84" value="+ PersonId: int" style="text;strokeColor=none;fillColor=none;align=left;verticalAlign=top;spacingLeft=4;spacingRight=4;overflow=hidden;rotatable=0;points=[[0,0.5],[1,0.5]];portConstraint=eastwest;whiteSpace=wrap;html=1;" vertex="1" parent="WkCyeL3jxbVvZCuhyvXg-83">
          <mxGeometry y="26" width="160" height="26" as="geometry" />
        </mxCell>
        <mxCell id="WkCyeL3jxbVvZCuhyvXg-85" value="+ WahlkreisId: int&lt;div style=&quot;&quot;&gt;&lt;div&gt;&lt;br&gt;&lt;/div&gt;&lt;/div&gt;" style="text;strokeColor=none;fillColor=none;align=left;verticalAlign=top;spacingLeft=4;spacingRight=4;overflow=hidden;rotatable=0;points=[[0,0.5],[1,0.5]];portConstraint=eastwest;whiteSpace=wrap;html=1;" vertex="1" parent="WkCyeL3jxbVvZCuhyvXg-83">
          <mxGeometry y="52" width="160" height="24" as="geometry" />
        </mxCell>
        <mxCell id="WkCyeL3jxbVvZCuhyvXg-86" value="+ Alter: int" style="text;strokeColor=none;fillColor=none;align=left;verticalAlign=top;spacingLeft=4;spacingRight=4;overflow=hidden;rotatable=0;points=[[0,0.5],[1,0.5]];portConstraint=eastwest;whiteSpace=wrap;html=1;" vertex="1" parent="WkCyeL3jxbVvZCuhyvXg-83">
          <mxGeometry y="76" width="160" height="26" as="geometry" />
        </mxCell>
        <mxCell id="WkCyeL3jxbVvZCuhyvXg-87" value="" style="line;strokeWidth=1;fillColor=none;align=left;verticalAlign=middle;spacingTop=-1;spacingLeft=3;spacingRight=3;rotatable=0;labelPosition=right;points=[];portConstraint=eastwest;strokeColor=inherit;" vertex="1" parent="WkCyeL3jxbVvZCuhyvXg-83">
          <mxGeometry y="102" width="160" height="8" as="geometry" />
        </mxCell>
        <mxCell id="WkCyeL3jxbVvZCuhyvXg-93" style="edgeStyle=orthogonalEdgeStyle;rounded=0;orthogonalLoop=1;jettySize=auto;html=1;exitX=0;exitY=0.5;exitDx=0;exitDy=0;entryX=1;entryY=0.5;entryDx=0;entryDy=0;endArrow=open;endFill=0;" edge="1" parent="1" source="WkCyeL3jxbVvZCuhyvXg-19" target="WkCyeL3jxbVvZCuhyvXg-84">
          <mxGeometry relative="1" as="geometry" />
        </mxCell>
        <mxCell id="WkCyeL3jxbVvZCuhyvXg-95" value="0..1" style="edgeLabel;html=1;align=center;verticalAlign=middle;resizable=0;points=[];" vertex="1" connectable="0" parent="WkCyeL3jxbVvZCuhyvXg-93">
          <mxGeometry x="-0.7346" y="1" relative="1" as="geometry">
            <mxPoint x="-5" y="-14" as="offset" />
          </mxGeometry>
        </mxCell>
        <mxCell id="WkCyeL3jxbVvZCuhyvXg-96" value="1" style="edgeLabel;html=1;align=center;verticalAlign=middle;resizable=0;points=[];" vertex="1" connectable="0" parent="WkCyeL3jxbVvZCuhyvXg-93">
          <mxGeometry x="0.6655" y="2" relative="1" as="geometry">
            <mxPoint y="-14" as="offset" />
          </mxGeometry>
        </mxCell>
        <mxCell id="WkCyeL3jxbVvZCuhyvXg-94" style="edgeStyle=orthogonalEdgeStyle;rounded=0;orthogonalLoop=1;jettySize=auto;html=1;exitX=1;exitY=0.5;exitDx=0;exitDy=0;entryX=0.002;entryY=0.363;entryDx=0;entryDy=0;entryPerimeter=0;endArrow=open;endFill=0;" edge="1" parent="1" source="WkCyeL3jxbVvZCuhyvXg-15" target="WkCyeL3jxbVvZCuhyvXg-84">
          <mxGeometry relative="1" as="geometry" />
        </mxCell>
        <mxCell id="WkCyeL3jxbVvZCuhyvXg-97" value="0..1" style="edgeLabel;html=1;align=center;verticalAlign=middle;resizable=0;points=[];" vertex="1" connectable="0" parent="WkCyeL3jxbVvZCuhyvXg-94">
          <mxGeometry x="-0.5458" y="2" relative="1" as="geometry">
            <mxPoint x="-2" y="-8" as="offset" />
          </mxGeometry>
        </mxCell>
        <mxCell id="WkCyeL3jxbVvZCuhyvXg-98" value="1" style="edgeLabel;html=1;align=center;verticalAlign=middle;resizable=0;points=[];" vertex="1" connectable="0" parent="WkCyeL3jxbVvZCuhyvXg-94">
          <mxGeometry x="0.6956" y="1" relative="1" as="geometry">
            <mxPoint x="-4" y="-8" as="offset" />
          </mxGeometry>
        </mxCell>
      </root>
    </mxGraphModel>
  </diagram>
</mxfile>
